<svg width="800px" height="800px" viewBox="103.37202453613281 7.572752475738525 815.6119384765625 834.7473769187927" class="icon" version="1.1" xmlns="http://www.w3.org/2000/svg" fill="#000000"><g id="SVGRepo_bgCarrier" stroke-width="0"/><g id="SVGRepo_tracerCarrier" stroke-linecap="round" stroke-linejoin="round" stroke="#CCCCCC" stroke-width="28.672000000000004"/><g id="SVGRepo_iconCarrier"><path d="M712.252 364.688L577.453 338.78l-66.275-120.278-66.28 120.278-134.794 25.908 93.834 100.25-17.037 136.291 124.277-58.327 124.272 58.327-17.037-136.291z" fill="#1D4ED8"/><path d="M803.625 434.496c-1.459 160.596-131.855 290.993-292.452 292.453-76.346 0.693-150.076-30.799-204.647-83.529-56.995-55.073-87.084-130.821-87.796-208.923-0.676-74.35-116.033-74.415-115.355 0 2.034 223.497 184.3 405.775 407.798 407.807 223.519 2.032 405.803-187.375 407.808-407.807 0.675-74.416-114.679-74.351-115.356-0.001z" fill="oklch(58.8% 0.158 241.966)"/><path d="M218.73 415.399c1.462-160.594 131.845-290.992 292.443-292.455 76.347-0.696 150.079 30.801 204.647 83.531 56.997 55.075 87.093 130.822 87.805 208.923 0.677 74.35 116.031 74.416 115.355 0C916.948 191.905 734.669 9.624 511.173 7.589c-223.518-2.035-405.793 187.38-407.798 407.81-0.678 74.415 114.679 74.35 115.355 0z" fill="#06B6D4"/></g></svg>