<svg xmlns="http://www.w3.org/2000/svg" width="1024" height="1024" style="shape-rendering:geometricPrecision;text-rendering:geometricPrecision;image-rendering:optimizeQuality;fill-rule:evenodd;clip-rule:evenodd">
  <defs>
    <clipPath id="a">
      <rect width="1024" height="1024" rx="50%" ry="50%"/>
    </clipPath>
  </defs>
  <g clip-path="url(#a)">
    <path style="opacity:1" fill="#339af0" d="M-.5-.5h1024v1024H-.5z"/>
    <path style="opacity:1" fill="#fefefe" d="M312.5 492.5a179.5 179.5 0 0 1-4-46q6.138-47.284 35.5-85A15895 15895 0 0 0 542.5 135q16.102-10.407 33-1 23.796 15.81 34.5 42.5 22.03 60.726-13 115a707 707 0 0 1-27 36 6323 6323 0 0 0-125 143q-35.587 44.966-13 98a151 151 0 0 0 20 31q1.067 2.8-1.5 4.5-47.474-1.821-84-32-38.716-31.937-54-79.5"/>
    <path style="opacity:1" fill="#fefefe" d="M602.5 410.5a137 137 0 0 0-2-28q-6.987-27.98-26.5-49a8.4 8.4 0 0 1-.5-4q53.262 2.394 92 38.5 69.482 67.402 36.5 158.5a243 243 0 0 1-14 26 1220 1220 0 0 1-29 37l-203 237-29.5 31.5q-17.83 9.93-34-3-45.702-41.58-37.5-103.5 4.875-24.627 18-46a236 236 0 0 1 21-29 29184 29184 0 0 0 189-218q16.757-21.032 19.5-48"/>
    <path style="opacity:1" fill="#1375ee" d="M600.5 382.5a137 137 0 0 1 2 28 1043 1043 0 0 0-3-25.5q.042-1.605 1-2.5"/>
    <path style="opacity:1" fill="#1d76f0" d="M308.5 446.5a179.5 179.5 0 0 0 4 46q-3.839-8.397-4.5-18-1.222-17.063.5-28"/>
  </g>
</svg>
